<mxfile host="app.diagrams.net" modified="2023-10-03T08:48:13.969Z" agent="Mozilla/5.0 (Windows NT 10.0; Win64; x64) AppleWebKit/537.36 (KHTML, like Gecko) Chrome/117.0.0.0 Safari/537.36" etag="jWQVOl0SeZUlO3dtqTt-" version="22.0.1" type="device">
  <diagram name="PÃ¡gina-1" id="BPrtyhtTaacIlB4tv7xY">
    <mxGraphModel dx="2261" dy="1927" grid="1" gridSize="10" guides="1" tooltips="1" connect="1" arrows="1" fold="1" page="1" pageScale="1" pageWidth="827" pageHeight="1169" math="0" shadow="0">
      <root>
        <mxCell id="0" />
        <mxCell id="1" parent="0" />
        <mxCell id="G7n-L2fTerEoFQVPsqrO-56" style="edgeStyle=orthogonalEdgeStyle;rounded=0;orthogonalLoop=1;jettySize=auto;html=1;entryX=0.5;entryY=0;entryDx=0;entryDy=0;" edge="1" parent="1" source="G7n-L2fTerEoFQVPsqrO-1" target="G7n-L2fTerEoFQVPsqrO-3">
          <mxGeometry relative="1" as="geometry">
            <Array as="points">
              <mxPoint x="470" y="30" />
              <mxPoint x="215" y="30" />
            </Array>
          </mxGeometry>
        </mxCell>
        <mxCell id="G7n-L2fTerEoFQVPsqrO-1" value="&lt;b&gt;&lt;font style=&quot;font-size: 27px;&quot;&gt;Concesionario&lt;/font&gt;&lt;/b&gt;" style="rounded=1;whiteSpace=wrap;html=1;fillColor=#ffe6cc;strokeColor=#d79b00;" vertex="1" parent="1">
          <mxGeometry x="360" y="-100" width="270" height="110" as="geometry" />
        </mxCell>
        <mxCell id="G7n-L2fTerEoFQVPsqrO-36" style="edgeStyle=orthogonalEdgeStyle;rounded=0;orthogonalLoop=1;jettySize=auto;html=1;" edge="1" parent="1" source="G7n-L2fTerEoFQVPsqrO-3" target="G7n-L2fTerEoFQVPsqrO-34">
          <mxGeometry relative="1" as="geometry">
            <Array as="points">
              <mxPoint x="310" y="270" />
              <mxPoint x="370" y="270" />
            </Array>
          </mxGeometry>
        </mxCell>
        <mxCell id="G7n-L2fTerEoFQVPsqrO-38" style="edgeStyle=orthogonalEdgeStyle;rounded=0;orthogonalLoop=1;jettySize=auto;html=1;entryX=0.5;entryY=0;entryDx=0;entryDy=0;" edge="1" parent="1" source="G7n-L2fTerEoFQVPsqrO-3" target="G7n-L2fTerEoFQVPsqrO-35">
          <mxGeometry relative="1" as="geometry" />
        </mxCell>
        <mxCell id="G7n-L2fTerEoFQVPsqrO-39" style="edgeStyle=orthogonalEdgeStyle;rounded=0;orthogonalLoop=1;jettySize=auto;html=1;" edge="1" parent="1" source="G7n-L2fTerEoFQVPsqrO-3" target="G7n-L2fTerEoFQVPsqrO-7">
          <mxGeometry relative="1" as="geometry" />
        </mxCell>
        <mxCell id="G7n-L2fTerEoFQVPsqrO-40" style="edgeStyle=orthogonalEdgeStyle;rounded=0;orthogonalLoop=1;jettySize=auto;html=1;" edge="1" parent="1" source="G7n-L2fTerEoFQVPsqrO-3" target="G7n-L2fTerEoFQVPsqrO-8">
          <mxGeometry relative="1" as="geometry">
            <Array as="points">
              <mxPoint x="190" y="240" />
              <mxPoint x="190" y="240" />
            </Array>
          </mxGeometry>
        </mxCell>
        <mxCell id="G7n-L2fTerEoFQVPsqrO-41" style="edgeStyle=orthogonalEdgeStyle;rounded=0;orthogonalLoop=1;jettySize=auto;html=1;entryX=0.5;entryY=0;entryDx=0;entryDy=0;" edge="1" parent="1" source="G7n-L2fTerEoFQVPsqrO-3" target="G7n-L2fTerEoFQVPsqrO-6">
          <mxGeometry relative="1" as="geometry">
            <Array as="points">
              <mxPoint x="140" y="270" />
              <mxPoint x="85" y="270" />
            </Array>
          </mxGeometry>
        </mxCell>
        <mxCell id="G7n-L2fTerEoFQVPsqrO-3" value="&lt;b&gt;&lt;font style=&quot;font-size: 15px;&quot;&gt;InformacionCoche&lt;/font&gt;&lt;/b&gt;" style="rounded=1;whiteSpace=wrap;html=1;fillColor=#dae8fc;strokeColor=#6c8ebf;" vertex="1" parent="1">
          <mxGeometry x="80" y="180" width="270" height="60" as="geometry" />
        </mxCell>
        <mxCell id="G7n-L2fTerEoFQVPsqrO-5" value="&lt;b&gt;marca&lt;/b&gt;" style="ellipse;whiteSpace=wrap;html=1;fillColor=#d5e8d4;strokeColor=#82b366;" vertex="1" parent="1">
          <mxGeometry x="-30" y="300" width="70" height="50" as="geometry" />
        </mxCell>
        <mxCell id="G7n-L2fTerEoFQVPsqrO-6" value="&lt;b&gt;matricula&lt;/b&gt;" style="ellipse;whiteSpace=wrap;html=1;fillColor=#d5e8d4;strokeColor=#82b366;" vertex="1" parent="1">
          <mxGeometry x="50" y="300" width="70" height="50" as="geometry" />
        </mxCell>
        <mxCell id="G7n-L2fTerEoFQVPsqrO-7" value="&lt;b&gt;yearMatriculacion&lt;/b&gt;" style="ellipse;whiteSpace=wrap;html=1;fillColor=#d5e8d4;strokeColor=#82b366;" vertex="1" parent="1">
          <mxGeometry x="209.07" y="300" width="110" height="50" as="geometry" />
        </mxCell>
        <mxCell id="G7n-L2fTerEoFQVPsqrO-8" value="&lt;b&gt;year&lt;/b&gt;" style="ellipse;whiteSpace=wrap;html=1;fillColor=#d5e8d4;strokeColor=#82b366;" vertex="1" parent="1">
          <mxGeometry x="130" y="300" width="70" height="50" as="geometry" />
        </mxCell>
        <mxCell id="G7n-L2fTerEoFQVPsqrO-34" value="&lt;b&gt;combustible&lt;/b&gt;" style="ellipse;whiteSpace=wrap;html=1;fillColor=#d5e8d4;strokeColor=#82b366;" vertex="1" parent="1">
          <mxGeometry x="330" y="300" width="80" height="50" as="geometry" />
        </mxCell>
        <mxCell id="G7n-L2fTerEoFQVPsqrO-35" value="&lt;b&gt;motor&lt;/b&gt;" style="ellipse;whiteSpace=wrap;html=1;fillColor=#d5e8d4;strokeColor=#82b366;" vertex="1" parent="1">
          <mxGeometry x="420" y="300" width="80" height="50" as="geometry" />
        </mxCell>
        <mxCell id="G7n-L2fTerEoFQVPsqrO-42" style="edgeStyle=orthogonalEdgeStyle;rounded=0;orthogonalLoop=1;jettySize=auto;html=1;entryX=0.414;entryY=-0.02;entryDx=0;entryDy=0;entryPerimeter=0;" edge="1" parent="1" source="G7n-L2fTerEoFQVPsqrO-3" target="G7n-L2fTerEoFQVPsqrO-5">
          <mxGeometry relative="1" as="geometry" />
        </mxCell>
        <mxCell id="G7n-L2fTerEoFQVPsqrO-43" style="edgeStyle=orthogonalEdgeStyle;rounded=0;orthogonalLoop=1;jettySize=auto;html=1;" edge="1" source="G7n-L2fTerEoFQVPsqrO-48" target="G7n-L2fTerEoFQVPsqrO-53" parent="1">
          <mxGeometry relative="1" as="geometry">
            <Array as="points">
              <mxPoint x="900" y="270" />
              <mxPoint x="960" y="270" />
            </Array>
          </mxGeometry>
        </mxCell>
        <mxCell id="G7n-L2fTerEoFQVPsqrO-44" style="edgeStyle=orthogonalEdgeStyle;rounded=0;orthogonalLoop=1;jettySize=auto;html=1;entryX=0.5;entryY=0;entryDx=0;entryDy=0;" edge="1" source="G7n-L2fTerEoFQVPsqrO-48" target="G7n-L2fTerEoFQVPsqrO-54" parent="1">
          <mxGeometry relative="1" as="geometry" />
        </mxCell>
        <mxCell id="G7n-L2fTerEoFQVPsqrO-45" style="edgeStyle=orthogonalEdgeStyle;rounded=0;orthogonalLoop=1;jettySize=auto;html=1;" edge="1" source="G7n-L2fTerEoFQVPsqrO-48" target="G7n-L2fTerEoFQVPsqrO-51" parent="1">
          <mxGeometry relative="1" as="geometry" />
        </mxCell>
        <mxCell id="G7n-L2fTerEoFQVPsqrO-46" style="edgeStyle=orthogonalEdgeStyle;rounded=0;orthogonalLoop=1;jettySize=auto;html=1;" edge="1" source="G7n-L2fTerEoFQVPsqrO-48" target="G7n-L2fTerEoFQVPsqrO-52" parent="1">
          <mxGeometry relative="1" as="geometry">
            <Array as="points">
              <mxPoint x="780" y="240" />
              <mxPoint x="780" y="240" />
            </Array>
          </mxGeometry>
        </mxCell>
        <mxCell id="G7n-L2fTerEoFQVPsqrO-47" style="edgeStyle=orthogonalEdgeStyle;rounded=0;orthogonalLoop=1;jettySize=auto;html=1;entryX=0.5;entryY=0;entryDx=0;entryDy=0;" edge="1" source="G7n-L2fTerEoFQVPsqrO-48" target="G7n-L2fTerEoFQVPsqrO-50" parent="1">
          <mxGeometry relative="1" as="geometry">
            <Array as="points">
              <mxPoint x="730" y="270" />
              <mxPoint x="675" y="270" />
            </Array>
          </mxGeometry>
        </mxCell>
        <mxCell id="G7n-L2fTerEoFQVPsqrO-48" value="&lt;b&gt;&lt;font style=&quot;font-size: 15px;&quot;&gt;InformacionMoto&lt;/font&gt;&lt;/b&gt;" style="rounded=1;whiteSpace=wrap;html=1;fillColor=#dae8fc;strokeColor=#6c8ebf;" vertex="1" parent="1">
          <mxGeometry x="670" y="180" width="270" height="60" as="geometry" />
        </mxCell>
        <mxCell id="G7n-L2fTerEoFQVPsqrO-49" value="&lt;b&gt;marca&lt;/b&gt;" style="ellipse;whiteSpace=wrap;html=1;fillColor=#d5e8d4;strokeColor=#82b366;" vertex="1" parent="1">
          <mxGeometry x="560" y="300" width="70" height="50" as="geometry" />
        </mxCell>
        <mxCell id="G7n-L2fTerEoFQVPsqrO-50" value="&lt;b&gt;matricula&lt;/b&gt;" style="ellipse;whiteSpace=wrap;html=1;fillColor=#d5e8d4;strokeColor=#82b366;" vertex="1" parent="1">
          <mxGeometry x="640" y="300" width="70" height="50" as="geometry" />
        </mxCell>
        <mxCell id="G7n-L2fTerEoFQVPsqrO-51" value="&lt;b&gt;yearMatriculacion&lt;/b&gt;" style="ellipse;whiteSpace=wrap;html=1;fillColor=#d5e8d4;strokeColor=#82b366;" vertex="1" parent="1">
          <mxGeometry x="799.0699999999999" y="300" width="110" height="50" as="geometry" />
        </mxCell>
        <mxCell id="G7n-L2fTerEoFQVPsqrO-52" value="&lt;b&gt;year&lt;/b&gt;" style="ellipse;whiteSpace=wrap;html=1;fillColor=#d5e8d4;strokeColor=#82b366;" vertex="1" parent="1">
          <mxGeometry x="720" y="300" width="70" height="50" as="geometry" />
        </mxCell>
        <mxCell id="G7n-L2fTerEoFQVPsqrO-53" value="&lt;b&gt;combustible&lt;/b&gt;" style="ellipse;whiteSpace=wrap;html=1;fillColor=#d5e8d4;strokeColor=#82b366;" vertex="1" parent="1">
          <mxGeometry x="920" y="300" width="80" height="50" as="geometry" />
        </mxCell>
        <mxCell id="G7n-L2fTerEoFQVPsqrO-54" value="&lt;b&gt;motor&lt;/b&gt;" style="ellipse;whiteSpace=wrap;html=1;fillColor=#d5e8d4;strokeColor=#82b366;" vertex="1" parent="1">
          <mxGeometry x="1010" y="300" width="80" height="50" as="geometry" />
        </mxCell>
        <mxCell id="G7n-L2fTerEoFQVPsqrO-55" style="edgeStyle=orthogonalEdgeStyle;rounded=0;orthogonalLoop=1;jettySize=auto;html=1;entryX=0.414;entryY=-0.02;entryDx=0;entryDy=0;entryPerimeter=0;" edge="1" source="G7n-L2fTerEoFQVPsqrO-48" target="G7n-L2fTerEoFQVPsqrO-49" parent="1">
          <mxGeometry relative="1" as="geometry" />
        </mxCell>
        <mxCell id="G7n-L2fTerEoFQVPsqrO-57" style="edgeStyle=orthogonalEdgeStyle;rounded=0;orthogonalLoop=1;jettySize=auto;html=1;entryX=0.554;entryY=-0.01;entryDx=0;entryDy=0;entryPerimeter=0;" edge="1" parent="1" source="G7n-L2fTerEoFQVPsqrO-1" target="G7n-L2fTerEoFQVPsqrO-48">
          <mxGeometry relative="1" as="geometry">
            <Array as="points">
              <mxPoint x="520" y="30" />
              <mxPoint x="820" y="30" />
            </Array>
          </mxGeometry>
        </mxCell>
      </root>
    </mxGraphModel>
  </diagram>
</mxfile>
